<svg width="1374" height="1032" viewBox="0 0 1374 1032" fill="none" xmlns="http://www.w3.org/2000/svg" preserveAspectRatio="none">
<g filter="url(#filter0_bd_230_101)">
<path d="M1284.08 26H89.4442C55.7616 26 28.6959 53.7529 29.5403 87.4249L50.9208 940.025C51.7799 974.284 81.1437 1000.85 115.317 998.277L1244.08 913.41C1273.9 911.169 1297.5 887.289 1299.39 857.448L1344 153.87V85.9227C1344 52.8283 1317.17 26 1284.08 26Z" fill="white" fill-opacity="0.5" shape-rendering="crispEdges"/>
<path d="M1284.08 26H89.4442C55.7616 26 28.6959 53.7529 29.5403 87.4249L50.9208 940.025C51.7799 974.284 81.1437 1000.85 115.317 998.277L1244.08 913.41C1273.9 911.169 1297.5 887.289 1299.39 857.448L1344 153.87V85.9227C1344 52.8283 1317.17 26 1284.08 26Z" stroke="#E51C47" stroke-opacity="0.5" shape-rendering="crispEdges"/>
</g>
<defs>
<filter id="filter0_bd_230_101" x="-270.979" y="-274.5" width="1915.48" height="1573.45" filterUnits="userSpaceOnUse" color-interpolation-filters="sRGB">
<feFlood flood-opacity="0" result="BackgroundImageFix"/>
<feGaussianBlur in="BackgroundImageFix" stdDeviation="150"/>
<feComposite in2="SourceAlpha" operator="in" result="effect1_backgroundBlur_230_101"/>
<feColorMatrix in="SourceAlpha" type="matrix" values="0 0 0 0 0 0 0 0 0 0 0 0 0 0 0 0 0 0 127 0" result="hardAlpha"/>
<feOffset dy="4"/>
<feGaussianBlur stdDeviation="14.5"/>
<feComposite in2="hardAlpha" operator="out"/>
<feColorMatrix type="matrix" values="0 0 0 0 0.756863 0 0 0 0 0.0901961 0 0 0 0 0.266667 0 0 0 0.2 0"/>
<feBlend mode="normal" in2="effect1_backgroundBlur_230_101" result="effect2_dropShadow_230_101"/>
<feBlend mode="normal" in="SourceGraphic" in2="effect2_dropShadow_230_101" result="shape"/>
</filter>
</defs>
</svg>
