<svg width="195" height="41" viewBox="0 0 195 41" fill="none" xmlns="http://www.w3.org/2000/svg">
<path d="M39.8346 20.4632C40.9709 20.8353 41.8343 21.5052 42.4099 22.4678C42.9904 23.4304 43.2782 24.5766 43.2782 25.9015C43.2782 27.8664 42.6232 29.4046 41.3083 30.5111C39.9934 31.6177 38.2071 32.1734 35.9494 32.1734H26.353V10.4351H35.8849C37.9342 10.4351 39.5518 10.9213 40.7426 11.8939C41.9335 12.8664 42.529 14.2657 42.529 16.0867C42.529 18.0963 41.6309 19.5551 39.8297 20.4632H39.8346ZM38.0632 16.831C38.0632 16.0421 37.8399 15.4863 37.3933 15.1539C36.9467 14.8214 36.2471 14.6577 35.2994 14.6577H30.7989V19.0341H35.4234C37.1849 19.0341 38.0632 18.2998 38.0632 16.831ZM35.8601 27.9458C36.9368 27.9458 37.6911 27.7374 38.1277 27.3256C38.5644 26.9137 38.7777 26.3133 38.7777 25.5244C38.7777 24.6957 38.5594 24.0854 38.1277 23.6934C37.6911 23.3014 36.9269 23.1029 35.8303 23.1029H30.7989V27.9458H35.8601Z" fill="white"/>
<path d="M55.3903 14.7222C55.6781 14.7222 56.0106 14.742 56.3827 14.7867V19.3517C55.9262 19.312 55.564 19.2872 55.2961 19.2872C53.7231 19.2872 52.4529 19.694 51.4903 20.5128C50.5276 21.3315 50.0463 22.6811 50.0463 24.5667V32.1734H45.6053V15.0943H50.0463V18.0764C51.1032 15.8386 52.8846 14.7222 55.3854 14.7222H55.3903Z" fill="white"/>
<path d="M60.655 7.20483C61.4638 7.20483 62.1237 7.44797 62.6447 7.93424C63.1608 8.42051 63.4188 9.04573 63.4188 9.81483C63.4188 10.5839 63.1608 11.2141 62.6447 11.7103C62.1287 12.2065 61.4638 12.4546 60.655 12.4546C59.8462 12.4546 59.2111 12.2065 58.6851 11.7103C58.1591 11.2141 57.8912 10.5839 57.8912 9.81483C57.8912 9.04573 58.1542 8.45029 58.6851 7.95409C59.2111 7.4579 59.871 7.2098 60.655 7.2098V7.20483ZM58.4171 32.1684V15.0894H62.8581V32.1684H58.4171Z" fill="white"/>
<path d="M78.8207 8.26172H83.2616V32.1734H78.8207V29.876C77.5157 31.6574 75.7244 32.5455 73.4469 32.5455C71.1694 32.5455 69.3533 31.7119 67.8746 30.0447C66.3959 28.3775 65.6566 26.2389 65.6566 23.6339C65.6566 21.0288 66.3959 18.8902 67.8746 17.223C69.3533 15.5558 71.2041 14.7222 73.4171 14.7222C75.6302 14.7222 77.4958 15.6451 78.8207 17.486V8.26172ZM74.4443 28.3229C75.7046 28.3229 76.7515 27.8863 77.5802 27.0179C78.4088 26.1496 78.8207 25.0183 78.8207 23.6339C78.8207 22.2495 78.4039 21.1182 77.5802 20.2498C76.7515 19.3815 75.7046 18.9448 74.4443 18.9448C73.1839 18.9448 72.1469 19.3815 71.3381 20.2498C70.5293 21.1182 70.1273 22.2495 70.1273 23.6339C70.1273 25.0183 70.5342 26.1496 71.3529 27.0179C72.1717 27.8863 73.1988 28.3229 74.4443 28.3229Z" fill="white"/>
<path d="M98.9464 15.0944H103.387V31.9551C103.387 34.4808 102.623 36.5052 101.09 38.0236C99.5567 39.5469 97.5075 40.3061 94.9421 40.3061C92.7291 40.3061 90.8088 39.7454 89.1813 38.629C87.5538 37.5125 86.5862 35.885 86.2785 33.7514H90.8733C91.3298 35.488 92.6447 36.3613 94.8181 36.3613C97.572 36.3613 98.9464 34.9323 98.9464 32.0742V29.623C97.6216 31.4044 95.8303 32.2925 93.5726 32.2925C91.3149 32.2925 89.479 31.4639 88.0003 29.8066C86.5217 28.1493 85.7823 26.0504 85.7823 23.5049C85.7823 20.9594 86.5266 18.8556 88.0202 17.2032C89.5088 15.5459 91.3646 14.7173 93.5776 14.7173C95.7906 14.7173 97.6464 15.6303 98.9514 17.4513V15.0894L98.9464 15.0944ZM94.57 28.0749C95.8303 28.0749 96.8773 27.6531 97.7059 26.7997C98.5346 25.9512 98.9464 24.8546 98.9464 23.5099C98.9464 22.1652 98.5296 21.0934 97.691 20.235C96.8525 19.3766 95.8105 18.9449 94.57 18.9449C93.3295 18.9449 92.2974 19.3766 91.4787 20.235C90.6599 21.0934 90.2531 22.185 90.2531 23.5099C90.2531 24.8347 90.6599 25.9264 91.4787 26.7848C92.2974 27.6432 93.3245 28.0749 94.57 28.0749Z" fill="white"/>
<path d="M114.81 14.7222C117.603 14.7222 119.811 15.6848 121.439 17.61C123.062 19.5353 123.761 21.9269 123.533 24.785H110.428C110.572 26.1099 111.049 27.1271 111.857 27.8267C112.666 28.5313 113.669 28.8836 114.869 28.8836C115.738 28.8836 116.517 28.6901 117.196 28.308C117.881 27.9259 118.368 27.4049 118.655 26.74H123.25C122.65 28.6653 121.593 30.1142 120.084 31.0867C118.571 32.0592 116.844 32.5455 114.899 32.5455C112.249 32.5455 110.086 31.7069 108.409 30.0298C106.732 28.3527 105.893 26.2289 105.893 23.6636C105.893 21.0983 106.732 18.9646 108.409 17.2676C110.086 15.5707 112.22 14.7222 114.805 14.7222H114.81ZM114.78 18.3841C113.723 18.3841 112.845 18.6669 112.14 19.2375C111.436 19.8082 110.939 20.5673 110.652 21.52H118.819C118.571 20.5673 118.095 19.8082 117.39 19.2375C116.685 18.6669 115.817 18.3841 114.78 18.3841Z" fill="white"/>
<path d="M147.42 32.1734L145.589 27.0477H136.801L134.94 32.1734H130.251L138.389 10.4351H144.011L152.149 32.1734H147.43H147.42ZM138.32 22.8251H144.031L141.173 14.9356L138.315 22.8251H138.32Z" fill="white"/>
<path d="M170.289 32.1733H165.01L161.502 26.7995L158.177 32.1733H152.838L158.862 23.3559L153.151 15.0942H158.43L161.661 20.0959L164.673 15.0942H170.012L164.3 23.4799L170.294 32.1733H170.289Z" fill="white"/>
<path d="M174.353 7.20483C175.162 7.20483 175.822 7.44797 176.343 7.93424C176.859 8.42051 177.117 9.04573 177.117 9.81483C177.117 10.5839 176.859 11.2141 176.343 11.7103C175.827 12.2065 175.162 12.4546 174.353 12.4546C173.544 12.4546 172.909 12.2065 172.383 11.7103C171.857 11.2141 171.589 10.5839 171.589 9.81483C171.589 9.04573 171.852 8.45029 172.383 7.95409C172.909 7.4579 173.569 7.2098 174.353 7.2098V7.20483ZM172.115 32.1684V15.0894H176.556V32.1684H172.115Z" fill="white"/>
<path d="M187.398 32.5456C185.101 32.5456 183.186 32.0147 181.652 30.9478C180.119 29.881 179.201 28.4173 178.889 26.5516H183.389C183.761 28.0848 185.141 28.8489 187.517 28.8489C189.443 28.8489 190.405 28.3825 190.405 27.4497C190.405 27.3256 190.39 27.2115 190.361 27.1073C190.331 27.0031 190.276 26.9088 190.207 26.8294C190.132 26.7451 190.058 26.6706 189.974 26.5962C189.889 26.5218 189.77 26.4573 189.616 26.3928C189.462 26.3283 189.324 26.2786 189.199 26.239C189.075 26.1993 188.892 26.1447 188.654 26.0851C188.416 26.0206 188.207 25.971 188.033 25.9313C187.86 25.8916 187.617 25.837 187.304 25.7775C186.991 25.713 186.723 25.6534 186.495 25.5889C183.95 24.9885 182.173 24.3336 181.171 23.619C180.169 22.9045 179.663 21.8327 179.663 20.4037C179.663 18.6223 180.342 17.233 181.697 16.2257C183.052 15.2234 184.868 14.7173 187.145 14.7173C189.423 14.7173 191.194 15.2085 192.455 16.191C193.715 17.1735 194.504 18.5033 194.816 20.1804H190.316C189.944 19.0193 188.837 18.4437 186.991 18.4437C185.146 18.4437 184.133 18.9201 184.133 19.8728C184.133 20.2449 184.332 20.5128 184.724 20.6816C185.116 20.8453 186.009 21.0835 187.393 21.3961C188.778 21.7087 189.879 21.9915 190.683 22.2495C191.492 22.5076 192.256 22.845 192.98 23.2568C193.705 23.6736 194.221 24.1698 194.534 24.7454C194.846 25.3259 195 26.0306 195 26.8592C195 28.7001 194.285 30.1093 192.856 31.0818C191.427 32.0544 189.606 32.5406 187.393 32.5406L187.398 32.5456Z" fill="white"/>
<path d="M3.83063 24.4129L0 22.2148V18.6868L3.83063 16.4936L9.20939 13.4023L9.7701 13.0847L15.5855 9.74536V17.0642L15.5805 17.0692L10.167 20.4533L3.83063 24.4129Z" fill="#C11744"/>
<path d="M0 8.11777L9.7701 13.7297L15.5855 17.0642V9.74529L15.5805 9.74033L0 0V8.11777Z" fill="#E51C47"/>
<path d="M0 32.7887L9.7701 27.1767L15.5855 23.8423V31.1612L15.5805 31.1661L0 40.9065V32.7887Z" fill="#C11744"/>
<path d="M15.5855 31.1661L9.7701 27.8267L9.20939 27.4992L3.83063 24.4128L0 22.2147V14.0969L3.83063 16.4935L10.167 20.4532L15.5805 23.8373L15.5855 23.8422V31.1661Z" fill="#E51C47"/>
</svg>
